<?xml version="1.0" encoding="utf-8"?>
<!-- Generator: Adobe Illustrator 24.0.1, SVG Export Plug-In . SVG Version: 6.00 Build 0)  -->
<svg version="1.1" id="Слой_1" xmlns="http://www.w3.org/2000/svg" xmlns:xlink="http://www.w3.org/1999/xlink" x="0px" y="0px"
	 viewBox="0 0 2409.45 2409.45" style="enable-background:new 0 0 2409.45 2409.45;" xml:space="preserve">
<style type="text/css">
	.st0{fill:url(#SVGID_1_);}
	.st1{fill:url(#SVGID_2_);}
	.st2{fill:#59924B;}
	.st3{fill:url(#SVGID_3_);}
	.st4{fill:url(#SVGID_4_);}
	.st5{fill:#93B851;}
	.st6{fill:url(#SVGID_5_);}
	.st7{fill:#FAF4A6;}
	.st8{fill:#FAF4AB;}
	.st9{opacity:0.4;fill:url(#SVGID_6_);enable-background:new    ;}
	.st10{fill:#33343B;}
	.st11{fill:#E0416D;}
	.st12{fill:url(#SVGID_7_);}
	.st13{fill:#FAF08A;}
	.st14{fill:url(#SVGID_8_);}
	.st15{opacity:0.26;fill:url(#SVGID_9_);enable-background:new    ;}
	.st16{opacity:0.42;fill:url(#SVGID_10_);enable-background:new    ;}
	.st17{fill:#FFB799;}
	.st18{fill:#E89178;}
	.st19{fill:#FEB79D;}
	.st20{fill:#E89B84;}
	.st21{fill:#292929;}
	.st22{fill:#3D2417;}
	.st23{fill:#3B3B3B;}
	.st24{fill:url(#SVGID_11_);}
	.st25{opacity:0.71;fill:#363636;enable-background:new    ;}
	.st26{opacity:0.51;fill:#292929;enable-background:new    ;}
	.st27{fill:#613E2A;}
	.st28{fill:#54320E;}
	.st29{fill:#FFB73B;}
	.st30{fill:#FFDF3B;}
	.st31{fill:url(#SVGID_12_);}
	.st32{fill:url(#SVGID_13_);}
	.st33{fill:#F74D73;}
	.st34{fill:url(#SVGID_14_);}
	.st35{fill:url(#SVGID_15_);}
	.st36{fill:#F7E8D7;}
	.st37{fill:#CF3434;}
	.st38{fill:#CF4A4A;}
	.st39{fill:none;stroke:#B8B2AD;stroke-width:0.25;stroke-miterlimit:10;}
	.st40{fill:#FFFFFF;}
	.st41{fill:none;stroke:url(#SVGID_16_);stroke-width:4;stroke-miterlimit:10;}
	.st42{fill:none;stroke:#FFF175;stroke-linejoin:round;stroke-miterlimit:10;}
	.st43{fill:none;stroke:#FFF175;stroke-width:0.75;stroke-linejoin:round;stroke-miterlimit:10;}
	.st44{fill:none;stroke:#C3312F;stroke-width:2;stroke-miterlimit:10;}
	.st45{opacity:0.81;fill:#FAED67;enable-background:new    ;}
	.st46{fill:#D1D1D1;}
	.st47{opacity:0.81;fill:#FAED62;enable-background:new    ;}
	.st48{fill:none;stroke:#FAF08A;stroke-width:2;stroke-linecap:round;stroke-miterlimit:10;}
</style>
<radialGradient id="SVGID_1_" cx="2.8064" cy="2411.8003" r="2.8548" gradientTransform="matrix(0.6108 433.6036 433.6036 -0.6108 -1044562.25 1460.8574)" gradientUnits="userSpaceOnUse">
	<stop  offset="0" style="stop-color:#FF9CBA"/>
	<stop  offset="1" style="stop-color:#F5DBE3;stop-opacity:0"/>
</radialGradient>
<circle class="st0" cx="1204.72" cy="1204.72" r="1204.72"/>
<linearGradient id="SVGID_2_" gradientUnits="userSpaceOnUse" x1="786.4478" y1="1015.1783" x2="779.7419" y2="1307.6323" gradientTransform="matrix(1 0 0 -1 0 2410.5513)">
	<stop  offset="7.947290e-08" style="stop-color:#6D9144"/>
	<stop  offset="0.2717" style="stop-color:#729748"/>
	<stop  offset="0.6356" style="stop-color:#80A853"/>
	<stop  offset="1" style="stop-color:#93C063"/>
</linearGradient>
<path class="st1" d="M806.75,1265.7c0,0,30.47-188.88-16.49-268.9c-46.96-80.02-66.88,148.15-19.29,274.13L806.75,1265.7z"/>
<path class="st2" d="M769.4,980.57c9.32,9.21,58.75,41.83,23.71,290.36h3.87c0,0,43.01-189.24-6.71-274.13
	c0,0-9.83-17.99-19.65-16.51L769.4,980.57z"/>
<linearGradient id="SVGID_3_" gradientUnits="userSpaceOnUse" x1="806.7184" y1="1104.391" x2="840.5392" y2="1189.7837" gradientTransform="matrix(1 0 0 -1 0 2410.5513)">
	<stop  offset="7.947290e-08" style="stop-color:#6D9144"/>
	<stop  offset="0.2717" style="stop-color:#729748"/>
	<stop  offset="0.6356" style="stop-color:#80A853"/>
	<stop  offset="1" style="stop-color:#93C063"/>
</linearGradient>
<path class="st3" d="M814.25,1265.53c0,0,12.48-58.59,35.3-76.93c22.82-18.34,2.79,50.6-25.42,82.33L814.25,1265.53z"/>
<path class="st2" d="M857.49,1186.1c-3.77,1.69-21.94,5.89-39.84,82.43l-1.14-0.42c0,0,8.86-60.05,33.03-79.52
	c0,0,4.92-4.2,7.62-2.71L857.49,1186.1z"/>
<linearGradient id="SVGID_4_" gradientUnits="userSpaceOnUse" x1="806.7634" y1="1079.0095" x2="817.8972" y2="1262.5758" gradientTransform="matrix(1 0 0 -1 0 2410.5513)">
	<stop  offset="7.947290e-08" style="stop-color:#9FBA4D"/>
	<stop  offset="0.3952" style="stop-color:#A5BF52"/>
	<stop  offset="0.9235" style="stop-color:#B6CD61"/>
	<stop  offset="1" style="stop-color:#B9D064"/>
</linearGradient>
<path class="st4" d="M796.97,1270.93c0,0-26.01-156.98,24.35-201.67c39.68-35.22,26.01,142.2-8.3,201.67H796.97z"/>
<path class="st5" d="M833.26,1065.18c-15.26,13.8-42.92,31.65-31.86,204.12l-4.43,1.62c0,0-24.03-141.37,18.14-195.13
	c0,0,10.25-13.31,17.67-10.8L833.26,1065.18z"/>
<linearGradient id="SVGID_5_" gradientUnits="userSpaceOnUse" x1="769.3419" y1="1080.5392" x2="729.3204" y2="1237.0535" gradientTransform="matrix(1 0 0 -1 0 2410.5513)">
	<stop  offset="7.947290e-08" style="stop-color:#9FBA4D"/>
	<stop  offset="0.3952" style="stop-color:#A5BF52"/>
	<stop  offset="0.9235" style="stop-color:#B6CD61"/>
	<stop  offset="1" style="stop-color:#B9D064"/>
</linearGradient>
<path class="st6" d="M768.61,1275.87c0,0-4.78-139.43-55.86-169.58c-40.25-23.76,2.22,126.7,42.05,172.23L768.61,1275.87z"/>
<path class="st5" d="M701.77,1104.76c15.52,9.36,42.43,20.15,62.75,170.45l4.09,0.67c0,0-3.78-125.67-49.39-164.97
	c0,0-11.13-9.76-17.08-6.38L701.77,1104.76z"/>
<path class="st7" d="M1017.63,744.4c51.23,0,92.77-40.58,92.77-90.64c0-50.06-41.53-90.64-92.77-90.64
	c-51.23,0-92.76,40.58-92.76,90.64C924.87,703.82,966.4,744.4,1017.63,744.4z"/>
<path class="st8" d="M1128.6,925.69c51.23,0,92.77-40.58,92.77-90.64s-41.53-90.64-92.77-90.64s-92.76,40.58-92.76,90.64
	S1077.37,925.69,1128.6,925.69z"/>
<linearGradient id="SVGID_6_" gradientUnits="userSpaceOnUse" x1="2229.6833" y1="520.1091" x2="687.9744" y2="517.9908" gradientTransform="matrix(1 0 0 -1 0 2410.5513)">
	<stop  offset="1.589460e-07" style="stop-color:#C42350"/>
	<stop  offset="0.5015" style="stop-color:#D0305C;stop-opacity:0.4985"/>
	<stop  offset="1" style="stop-color:#E0416D;stop-opacity:0"/>
</linearGradient>
<path class="st9" d="M1149.34,1945.27c425.73,0,770.86-23.88,770.86-53.35s-345.13-53.35-770.86-53.35
	c-425.73,0-770.86,23.89-770.86,53.35S723.6,1945.27,1149.34,1945.27z"/>
<path class="st10" d="M1210.05,1408.35l-81.48,460.24c-0.45,2.55,1.56,4.87,4.2,4.87h3.78c2.02,0,3.76-1.38,4.17-3.31l97.3-456.28
	c0.47-2.19-0.92-4.35-3.13-4.89l-23.06-5.64l-1.59,4.3C1210.16,1407.88,1210.09,1408.11,1210.05,1408.35z"/>
<path class="st10" d="M1715.06,1409.55l81.48,460.24c0.45,2.55-1.56,4.87-4.2,4.87h-3.79c-2.02,0-3.76-1.38-4.17-3.31l-97.3-456.28
	c-0.47-2.19,0.92-4.35,3.14-4.89l23.06-5.64l1.59,4.3C1714.96,1409.08,1715.02,1409.31,1715.06,1409.55z"/>
<path class="st11" d="M1811.79,1174.65c-36.12-13.83-73.46-13.52-103.72-8.1c6-23.12,9.28-47.46,9.28-72.62
	c0-149.66-113.42-270.98-253.33-270.98s-253.33,121.32-253.33,270.98c0,25.17,3.27,49.5,9.28,72.62
	c-30.26-5.42-66.69-3.2-103.72,8.1c-81.94,25-120.9,105.54-112.95,156.05c7.19,45.69,97.48,250.86,460.72,250.86
	c332.6,0,456.18-212.57,456.18-255.76C1920.19,1274.7,1906.45,1210.91,1811.79,1174.65z"/>
<radialGradient id="SVGID_7_" cx="4.5602" cy="2406.6165" r="2.8548" gradientTransform="matrix(332.491 0 0 -324.878 456.241 783331.5)" gradientUnits="userSpaceOnUse">
	<stop  offset="1.589460e-07" style="stop-color:#C42350"/>
	<stop  offset="0.5015" style="stop-color:#D0305C"/>
	<stop  offset="1" style="stop-color:#E0416D"/>
</radialGradient>
<path class="st12" d="M1811.79,1174.65c-36.12-13.83-73.46-13.52-103.72-8.1c6-23.12,9.28-47.46,9.28-72.62
	c0-149.66-113.42-270.98-253.33-270.98s-253.33,121.32-253.33,270.98c0,25.17,3.27,49.5,9.28,72.62
	c-30.26-5.42-66.69-3.2-103.72,8.1c-81.94,25-120.9,105.54-112.95,156.05c7.19,45.69,97.48,250.86,460.72,250.86
	c332.6,0,456.18-212.57,456.18-255.76C1920.19,1274.7,1906.45,1210.91,1811.79,1174.65z"/>
<path class="st13" d="M1704.65,1173.79c30.26-5.43,72.34-6.48,108.46,7.36c17.54,6.72,35.13,10.79,47.55,19.14
	c-14.37-11.4-34.62-22.12-56.58-29.11c-31.79-10.12-67.73-10.51-95.35-7.21C1707.99,1167.22,1705.49,1170.57,1704.65,1173.79z"/>
<path class="st13" d="M1006.69,1337.81c-7.95-50.51,28.93-131.67,110.87-156.67c37.03-11.3,73.45-13.52,103.72-8.1
	c-6-23.12-9.28-47.46-9.28-72.62c0-149.66,113.42-270.98,253.33-270.98c50.79,0,100.72,12.31,140.37,39.84
	c-41.7-32.28-95.59-47.62-151-47.62c-139.91,0-253.33,121.32-253.33,270.98c0,25.17,3.27,49.5,9.28,72.62
	c-30.26-5.43-66.69-3.2-103.72,8.1c-81.94,25-120.9,105.54-112.95,156.05c3.97,25.19,39.53,98.03,125.8,159.05
	C1041.71,1429.1,1010.49,1361.94,1006.69,1337.81z"/>
<radialGradient id="SVGID_8_" cx="8.5304" cy="2401.7168" r="2.8548" gradientTransform="matrix(115.1872 14.7208 10.7949 -84.4676 -25560.8496 203772.0781)" gradientUnits="userSpaceOnUse">
	<stop  offset="0" style="stop-color:#FFDE36"/>
	<stop  offset="0.1968" style="stop-color:#FFD834"/>
	<stop  offset="0.4636" style="stop-color:#FFC730"/>
	<stop  offset="0.7693" style="stop-color:#FFAA28"/>
	<stop  offset="1" style="stop-color:#FF9021"/>
</radialGradient>
<path class="st14" d="M1425.65,903.79l-103.97,31.6c-9.03,2.85-16.34,9.47-20.03,18.13l-63.96,150.14
	c-4.8,11.28-5.39,24.07-0.73,35.41c2.03,4.92,5.01,9.71,9.4,13.31c14.64,12.03,52,24.06,52,24.06h360.49l4.8-3.01
	c10.03-6,14.39-12.3,20.2-19.55c7.83-9.77,17.89-31.75,3.11-69.5c-11.99-30.61-46.74-103.35-61.26-136.23
	c-4.21-9.54-12.82-16.45-23.09-18.56l-102.32-25.81c0,0-4.76,26.44-37.83,24.06C1462.45,927.85,1434.37,935.12,1425.65,903.79z"/>
<linearGradient id="SVGID_9_" gradientUnits="userSpaceOnUse" x1="1502.875" y1="1273.1936" x2="1609.3427" y2="1402.7424" gradientTransform="matrix(1 0 0 -1 0 2410.5513)">
	<stop  offset="0" style="stop-color:#FFAD42"/>
	<stop  offset="0.3976" style="stop-color:#FF9B38"/>
</linearGradient>
<path class="st15" d="M1475.94,929.04c15.49,10.09,61.61,28.11,55.7,57.67c-5.9,29.56-12.64,47.94-1.84,79.66
	c10.79,31.72,37.55-1.17,37.55-1.17v-29.74h3.14c0,0,22.86-18.76,31.99-2.25c9.13,16.51,9.32,25.77,12.91,37.67
	c3.6,11.9,44.54,26.22,48.97,41.36c4.42,15.14-4.7,52.99-18.81,64.07l15.11,0.13c0,0,58.24-20.57,23.09-102.44l-55.61-120.89
	c0,0-2.92-16.95-23.47-24.06l-100.41-24.25L1475.94,929.04z"/>
<linearGradient id="SVGID_10_" gradientUnits="userSpaceOnUse" x1="1587.5303" y1="1373.9572" x2="1657.0558" y2="1458.5591" gradientTransform="matrix(1 0 0 -1 0 2410.5513)">
	<stop  offset="0" style="stop-color:#FFAD42"/>
	<stop  offset="0.2239" style="stop-color:#FFAB3F"/>
	<stop  offset="0.3693" style="stop-color:#FFA337"/>
	<stop  offset="0.4919" style="stop-color:#FF9628"/>
	<stop  offset="0.5325" style="stop-color:#FF9021"/>
</linearGradient>
<path class="st16" d="M1488.96,922.66c25.67-0.16,55.29,15.88,67.4,39.27c12.12,23.39,26.26,41.24,45.78,47.02
	c19.52,5.78,77.58,80.95,80.11,92.65c2.26,10.47,16.16,47.45-33.66,74.84h10.27c0,0,43.2-12.65,34.98-66.47
	c0,0-1.42-17.83-11.75-39.62l-50.91-110.03c-1.34-2.97-2.63-5.96-3.72-9.03c-2.03-5.76-8.96-19.99-28.68-23.82l-98.49-23.68
	L1488.96,922.66z"/>
<path class="st17" d="M1468.75,929.6h-10.03c-18.48,0-33.47-14.64-33.47-32.7v-42.5h76.96v42.5
	C1502.22,914.96,1487.24,929.6,1468.75,929.6z"/>
<path class="st18" d="M1493.47,854.4v21.42c-38.01,14.79-68.21-3.26-68.21-3.26c28.41,20.71,54.99,11.89,68.21,4.89v21.49
	c0,13.62-13.24,22.93-31.83,26.06h-5.02c-17.33,0-31.37-13.73-31.37-30.65v4.6c0,16.93,14.05,30.65,31.37,30.65h14.22
	c17.33,0,31.37-13.72,31.37-30.65v-4.6V854.4H1493.47z"/>
<path class="st19" d="M1559.03,767.18c-0.5,0.45-0.93,0.9-1.32,1.36c-0.38-61.77-42.58-111.72-94.59-111.72
	c-51.54,0-93.43,49.04-94.56,110.04c-0.91-0.4-0.78-1.55-2.26-2.03c-7.35-2.4-8.33,19.4-4.41,26.58c3.92,7.18,8.1,23,13.97,21.56
	c0,0,0,0,0,0c14.32,40.52,47.99,68.97,87.25,68.97c39.49,0,73.31-28.79,87.49-69.68c2.53,0.15,7.69-2.86,7.94-7.19
	c0.33-5.75,9.31-26.71,9.31-32.14C1567.85,767.5,1562.62,763.99,1559.03,767.18z"/>
<path class="st20" d="M1368.56,766.87c0,0,1.66,2.88,2.15,5.99c0,0,1.71-3.47,1.47-7.07c0,0,29.52-52.9,35.29-66.1
	c5.77-13.2,19.61-9.34,21.57-4.55c0,0,39.19-5.51,62.26,96.28c13.69,60.42,56.09,29.12,56.09,29.12l3.21-8.28
	c0,0,6.2,0.26,7.83-6.42c0,0,1.29-6.14,4.89-16.92c3.59-10.78,5.34-13.77,4.28-18.16c-1.06-4.39-4.81-5.53-7.74-4.41
	c-3.14,1.2-9.1,15.96-3.12,14.04c0,0-7.89,6.6-17.59,5.42c-9.7-1.18-20.97-13.71-25.3-36.42c-4.57-23.97-19.02-47.44-44.71-60.77
	c-28.56-14.82-39.91-1.88-39.91-1.88s-12.23-10.45-25.45,9.51C1390.56,716.22,1368.56,766.87,1368.56,766.87z"/>
<path class="st21" d="M1429.29,687c14.22-15.81,71.57,3.83,84.32,61.31c12.74,57.48,43.14,32.09,43.14,32.09s-5.92,2.62,0.96-11.86
	c0,0,3.3-4.09,6.63-1.98c3.32,2.11,3.61,5.26,3.52,6.37c-0.09,1.11,0.04,3.2-5.04,17.43c0,0,7.27-12.06,12.56-35.35
	c5.56-24.43,4.42-60.51-7.52-94.68c-24.11-68.99-165.16-107.29-208.23-3.51c0,0-5.82-5.75-11.21,9.1
	c-5.39,14.85-27.29,64.34,13.48,125.49c0,0-4.67-7.89-1.26-21.07c0,0,3.02-9.72,7.38-3.93c0,0-0.31,0.03,0.55,0.45
	c0,0,27.4-63.1,39.16-75.79C1419.48,678.38,1429.29,687,1429.29,687z"/>
<path class="st22" d="M1317,1260.73c0,0-68.45,68.1-66.37,99.83c0,0,84.01-31.73,118.75,4.82c0,0,54.45-4.42,87.12-40.57
	c0,0,43.32,38.56,97.77,44.18c0,0,96.17-32.13,126.25-11.65c0,0-20.98-60.65-77.27-96.62H1317z"/>
<path class="st23" d="M1313.75,1280.53l297.99-0.08c10.38,0,19.6-8.49,22.92-21.09l24.87-159.44c5.29-20.09-6.37-40.91-22.92-40.91
	h-340.41c-16.04,0-27.63,19.64-23.28,39.42l17.54,159.52C1293.41,1271.31,1302.92,1280.53,1313.75,1280.53z"/>
<linearGradient id="SVGID_11_" gradientUnits="userSpaceOnUse" x1="1264.8132" y1="1239.7384" x2="1356.6608" y2="1241.8879" gradientTransform="matrix(1 0 0 -1 0 2410.5513)">
	<stop  offset="7.947290e-08" style="stop-color:#FAF4B9"/>
	<stop  offset="0.0215" style="stop-color:#EEE8B1;stop-opacity:0.9785"/>
	<stop  offset="0.1166" style="stop-color:#BEBA8F;stop-opacity:0.8834"/>
	<stop  offset="0.2169" style="stop-color:#939071;stop-opacity:0.7831"/>
	<stop  offset="0.3211" style="stop-color:#6F6D57;stop-opacity:0.6789"/>
	<stop  offset="0.4299" style="stop-color:#525143;stop-opacity:0.5701"/>
	<stop  offset="0.5452" style="stop-color:#3B3B33;stop-opacity:0.4548"/>
	<stop  offset="0.6697" style="stop-color:#2B2B28;stop-opacity:0.3303"/>
	<stop  offset="0.8101" style="stop-color:#222221;stop-opacity:0.19"/>
	<stop  offset="1" style="stop-color:#1F1F1F;stop-opacity:0"/>
</linearGradient>
<path class="st24" d="M1300.68,1257.94l-17.54-159.52c-4.36-19.78,7.24-39.42,23.28-39.42h-10.62c-16.04,0-27.63,19.64-23.28,39.42
	l17.54,159.52c2.94,13.36,12.45,22.58,23.28,22.58l10.6,0C1313.11,1280.51,1303.62,1271.29,1300.68,1257.94z"/>
<path class="st25" d="M1445.14,1059c41.73,0,106.4,8.02,99.51,39.09c-6.89,31.07-38.17,34.08-29.69,51.12
	c8.48,17.04,34.46,23.56,24.39,55.13c-10.07,31.57-5.83,76.18,0,76.18c5.83,0,51.14-0.08,51.14-0.08s17.13,0.88,22.92-21.09
	c5.78-21.97,24.87-159.44,24.87-159.44s8.84-36.4-22.92-40.91H1445.14L1445.14,1059z"/>
<path class="st26" d="M1466.38,1059c41.73,0,106.4,8.02,99.51,39.09c-6.89,31.07-38.17,34.08-29.68,51.12
	c8.48,17.04,34.45,23.56,24.38,55.13c-10.07,31.57-5.83,76.18,0,76.18c5.83,0,51.14-0.08,51.14-0.08s17.13,0.88,22.92-21.09
	c5.78-21.97,24.87-159.44,24.87-159.44s8.84-36.4-22.92-40.91H1466.38L1466.38,1059z"/>
<path class="st21" d="M1614.43,1288.04h-303.12c-1.35,0-2.44-1.06-2.44-2.38v-3.15c0-1.31,1.09-2.38,2.44-2.38h303.12
	c1.34,0,2.44,1.07,2.44,2.38v3.15C1616.87,1286.98,1615.78,1288.04,1614.43,1288.04z"/>
<path class="st10" d="M387.03,1925.74h-17.12c-2.72,0-4.93-2.16-4.93-4.82v-578.41h26.99v578.41
	C391.97,1923.58,389.76,1925.74,387.03,1925.74z"/>
<path class="st10" d="M386.76,1342.51v579.78c0,1.9-2.5,3.45-5.59,3.45h8.68c3.09,0,5.59-1.54,5.59-3.45v-579.78H386.76z"/>
<path class="st10" d="M915.52,1923.6h15.82c2.72,0,4.93-2.16,4.93-4.82v-578.41h-25.68v578.41
	C910.59,1921.44,912.79,1923.6,915.52,1923.6z"/>
<path class="st10" d="M915.54,1340.37v579.78c0,1.9,2.38,3.45,5.32,3.45h-8.25c-2.94,0-5.32-1.54-5.32-3.45v-579.78H915.54z"/>
<path class="st27" d="M970.18,1357.06H333.65c-4.1,0-7.42-3.25-7.42-7.25v-18.57c0-4,3.32-7.25,7.42-7.25h636.54
	c4.1,0,7.42,3.25,7.42,7.25v18.57C977.6,1353.82,974.28,1357.06,970.18,1357.06z"/>
<path class="st28" d="M973.51,1346.41H330.32c-2.26,0-4.09-3.85-4.09-8.6v12.43c0,4.75,1.83,8.6,4.09,8.6h643.19
	c2.26,0,4.09-3.85,4.09-8.6v-12.43C977.6,1342.56,975.77,1346.41,973.51,1346.41z"/>
<path class="st29" d="M1338.59,1762.98c-0.97,3.83-4.05,70.99-7.06,79.38c-3.01,8.39,91.37,5.52,91.37,5.52s-8.86-40.21-10.61-54.5
	c-1.75-14.38-3.74-25.36-6.93-33.08C1404.8,1758.92,1339.7,1758.63,1338.59,1762.98z"/>
<path class="st30" d="M1425.19,1876.74h-98.13v-20.61c0-23.02,19.1-41.69,42.67-41.69h12.79c23.57,0,42.67,18.67,42.67,41.69
	V1876.74z"/>
<path class="st29" d="M1420.91,1885.86h-89.57c-2.36,0-4.28-1.87-4.28-4.19v-4.94h98.13v4.94
	C1425.19,1883.98,1423.27,1885.86,1420.91,1885.86z"/>
<path class="st27" d="M1401.64,1762.98h-63.04c-3.17,0-5.91-2.19-6.54-5.22l-80.38-387.38c-6.95-37.03,19.64-58.81,57.2-61.15
	c30.57,0,44.18,5.37,64.53,40.73c2.4,4.17,3.87,8.82,4.31,13.58l36.15,386.35C1414.53,1756.91,1408.86,1762.98,1401.64,1762.98z"/>
<linearGradient id="SVGID_12_" gradientUnits="userSpaceOnUse" x1="1441.548" y1="894.0577" x2="1282.2133" y2="859.0208" gradientTransform="matrix(1 0 0 -1 0 2410.5513)">
	<stop  offset="1.589460e-07" style="stop-color:#4A2B1C"/>
	<stop  offset="1" style="stop-color:#4A2B1C;stop-opacity:0"/>
</linearGradient>
<path class="st31" d="M1250.57,1359.85c6.37-33.99,68.05-39.6,81.68-16.04c13.62,23.55-2.28,37.09,4.39,88.71
	c6.67,51.62,28.72,76.68,42.57,141.34c13.85,64.66,8.21,189.12,8.21,189.12h14.22c0,0,12.78-0.29,12.23-13.09
	c-0.55-12.8-36.15-386.35-36.15-386.35s-0.72-9.43-4.31-13.58c0,0-8.55-15.05-11.63-17.87c0,0-11.8-18.69-30.98-21.12
	c0,0-38.53-9.5-65.59,14.3c0,0-14.39,10.65-14.63,32.82V1359.85z"/>
<path class="st29" d="M1591.57,1838.06c-4.11,5.52-15.25,43.88-16.73,49.43c-1.48,5.55,97.87,4.32,97.87,4.32
	s-16.76-49.99-19.07-53.75C1651.32,1834.3,1591.57,1838.06,1591.57,1838.06z"/>
<path class="st30" d="M1673.95,1917.59h-101.56v-21.33c0-23.83,19.77-43.15,44.16-43.15h13.23c24.39,0,44.16,19.32,44.16,43.15
	V1917.59z"/>
<path class="st29" d="M1669.67,1927.03h-93c-2.37,0-4.28-1.87-4.28-4.18v-5.26h101.56v5.26
	C1673.95,1925.16,1672.03,1927.03,1669.67,1927.03z"/>
<path class="st27" d="M1595.75,1845.49l53.52-1.47c3.15-0.41,5.5-3.25,5.63-6.79l25.36-470.47c0.83-43.05-29.06-64.41-66.65-62.22
	c-30.29,3.95-51.38,5.61-65.77,48.5c-1.69,5.05-0.64,14.92-0.3,20.4l33.97,458.73C1582,1840.25,1588.6,1846.42,1595.75,1845.49z"/>
<linearGradient id="SVGID_13_" gradientUnits="userSpaceOnUse" x1="1511.6409" y1="835.8747" x2="1633.8262" y2="835.8747" gradientTransform="matrix(1 0 0 -1 0 2410.5513)">
	<stop  offset="1.589460e-07" style="stop-color:#4A2B1C"/>
	<stop  offset="1" style="stop-color:#4A2B1C;stop-opacity:0"/>
</linearGradient>
<path class="st32" d="M1680.16,1373.56c0.66-41.16-53.2-50.72-70.64-38.77c-17.44,11.95-32.83,52.11-21.03,79.37
	c11.8,27.25,5.92,107.95,1.03,135.3c-4.67,26.11,20.02,295.73,20.02,295.73l-12.01,0.29c0,0-12.2,2.14-14.31-13.37
	c-2.11-15.51-36.17-466.57-36.17-466.57s-0.5-59.93,62.08-61.72c62.58-1.79,69.63,33.82,71.26,57.25L1680.16,1373.56z"/>
<path class="st33" d="M1339.73,1059l12.73-23.54V1059H1339.73z"/>
<path class="st33" d="M1583.2,1059l-12.73-23.54V1059H1583.2z"/>
<radialGradient id="SVGID_14_" cx="34.1261" cy="2385.2791" r="2.8548" gradientTransform="matrix(12.8131 0.1482 0.4566 -39.4627 -739.8704 95416.3672)" gradientUnits="userSpaceOnUse">
	<stop  offset="7.947290e-08" style="stop-color:#E15241"/>
	<stop  offset="0.424" style="stop-color:#D5453A"/>
	<stop  offset="1" style="stop-color:#BF2D2D"/>
</radialGradient>
<path class="st34" d="M734.79,1323.99h98.47l20.31-61.97c0.92-1.58-0.25-3.53-2.1-3.53H719.93c-1.8,0-2.97,1.86-2.16,3.43
	L734.79,1323.99z"/>
<linearGradient id="SVGID_15_" gradientUnits="userSpaceOnUse" x1="1428.5504" y1="1706.8286" x2="1570.3082" y2="1729.8934" gradientTransform="matrix(1 0 0 -1 0 2410.5513)">
	<stop  offset="0" style="stop-color:#292929"/>
	<stop  offset="0.019" style="stop-color:#282828"/>
	<stop  offset="0.3115" style="stop-color:#212121"/>
	<stop  offset="1" style="stop-color:#1F1F1F"/>
</linearGradient>
<path class="st35" d="M1359.62,656.82c0,0,36.85-9.56,69.67,30.18c0,0,18.46-18.96,60.68,17.1c0,0,5.28,2.94,17.11,24.82
	c0,0,3.63,5.68,7.36,22.97c3.73,17.29,15.93,46.77,42.29,28.52c0,0-4.78,1.27-0.94-7.48c3.84-8.75,7.14-8.04,10.4-4.74
	c3.26,3.29-0.34,11.97-3.39,22.18c0,0,27.89-45.44,10.72-110.36c0,0-4.15-51.09-60.27-74.04c0,0-50.71-27.89-102.3-3.98
	c0,0-33.67,11.93-49.82,51.35L1359.62,656.82z"/>
<path class="st2" d="M607.08,1314.81H403.93c-2.3,0-4.17,1.82-4.17,4.07v1.22c0,2.25,1.87,4.07,4.17,4.07h203.15V1314.81z"/>
<path class="st36" d="M607.08,1278.76H405.62v36.05h201.46V1278.76z"/>
<path class="st2" d="M607.08,1269.39H403.93c-2.3,0-4.17,1.83-4.17,4.08v1.22c0,2.25,1.87,4.07,4.17,4.07h203.15V1269.39z"/>
<path class="st2" d="M608.75,1324.18h-3.55v-54.79h3.55c13.07,0,23.66,10.35,23.66,23.12v8.55
	C632.41,1313.83,621.81,1324.18,608.75,1324.18z"/>
<path class="st36" d="M606.63,1314.81h-4.29v-36.05h4.29c8.86,0,16.04,7.02,16.04,15.68v4.7
	C622.67,1307.79,615.49,1314.81,606.63,1314.81z"/>
<path class="st37" d="M431.22,1234.5h195.33c1.83,0,3.32-1.45,3.32-3.24v-0.97c0-1.79-1.48-3.24-3.32-3.24l-195.33,0V1234.5z"/>
<path class="st36" d="M431.22,1263.17h195.11v-28.67l-195.11,0V1263.17z"/>
<path class="st37" d="M431.22,1270.63h195.33c1.83,0,3.32-1.45,3.32-3.24v-0.97c0-1.79-1.48-3.24-3.32-3.24l-195.33,0V1270.63z"/>
<path class="st37" d="M426.34,1227.04h6.67v43.59h-6.67c-10.71,0-19.4-8.49-19.4-18.95v-5.68
	C406.95,1235.53,415.63,1227.04,426.34,1227.04z"/>
<path class="st36" d="M429.03,1234.5h6.73v28.67h-6.73c-7.05,0-12.76-5.58-12.76-12.47v-3.74
	C416.27,1240.08,421.98,1234.5,429.03,1234.5z"/>
<path class="st38" d="M446.51,1285.26h22.14v28.16l-11.07-10.5l-11.07,10.5V1285.26z"/>
<path class="st39" d="M446.52,1285.77h-12.96"/>
<path class="st39" d="M468.65,1285.77h46.38"/>
<path class="st40" d="M1961.57,941.83c67.19,0,121.66-53.22,121.66-118.87s-54.47-118.87-121.66-118.87s-121.66,53.22-121.66,118.87
	S1894.37,941.83,1961.57,941.83z"/>
<radialGradient id="SVGID_16_" cx="26.4729" cy="2395.0283" r="1.5855" gradientTransform="matrix(46.1924 0 0 -45.1347 738.7166 108921.8438)" gradientUnits="userSpaceOnUse">
	<stop  offset="7.947290e-08" style="stop-color:#E15241"/>
	<stop  offset="0.424" style="stop-color:#D5453A"/>
	<stop  offset="1" style="stop-color:#BF2D2D"/>
</radialGradient>
<path class="st41" d="M1961.57,941.83c67.19,0,121.66-53.22,121.66-118.87s-54.47-118.87-121.66-118.87s-121.66,53.22-121.66,118.87
	S1894.37,941.83,1961.57,941.83z"/>
<path d="M1961.56,829.71c3.82,0,6.92-3.02,6.92-6.76c0-3.73-3.1-6.76-6.92-6.76c-3.82,0-6.92,3.03-6.92,6.76
	C1954.64,826.69,1957.74,829.71,1961.56,829.71z"/>
<path d="M1964.02,730.07h-4.92v92.89h4.92V730.07z"/>
<path d="M2037.41,819.46h-75.84v7.21h75.84V819.46z"/>
<path class="st42" d="M1009.02,613.19v12.59l-9.89,21.67"/>
<path class="st42" d="M1026.41,613.19v12.59l9.89,21.67"/>
<path class="st43" d="M1003.6,648.18l3.15-5.71l2.7,11.71l3.45-11.71l5.84,14.35l2.85-15.23l5.24,11.86l1.8-8.49l3.15,2.49"/>
<path class="st42" d="M1119.82,791.42v12.59l-9.89,21.67"/>
<path class="st42" d="M1137.2,791.42v12.59l9.89,21.67"/>
<path class="st43" d="M1114.39,826.41l3.15-5.71l2.69,11.71l3.45-11.71l5.84,14.35l2.85-15.23l5.24,11.86l1.8-8.49l3.15,2.49"/>
<path class="st44" d="M1017.63,472.51v88.04"/>
<path class="st45" d="M1017.69,702.87L1017.69,702.87c0.06,0.01,0.13,0,0.19,0c0.07,0,0.13,0.01,0.19,0v-0.01
	c34.31,0,57.64-35.63,31.75-71.92c0,0-15.21-21.77-15.33-41.25l-17.12,0.1l-0.39,0l-17.11,0.1c0.12,19.48-14.82,41.42-14.82,41.42
	C959.61,667.92,983.37,703.27,1017.69,702.87z"/>
<path class="st46" d="M1035.01,560.55h-34.58v29.15h34.58V560.55z"/>
<path class="st44" d="M1128.51,464.18v277.14"/>
<path class="st47" d="M1128.56,883.64L1128.56,883.64c0.07,0.01,0.13,0,0.2,0c0.06,0,0.13,0,0.19,0v-0.01
	c34.31,0,57.64-35.63,31.75-71.92c0,0-15.21-21.76-15.33-41.25l-17.12,0.1l-0.39,0l-17.12,0.1c0.12,19.48-14.82,41.42-14.82,41.42
	C1070.49,848.69,1094.26,884.04,1128.56,883.64z"/>
<path class="st46" d="M1145.89,741.32h-34.58v29.15h34.58V741.32z"/>
<path class="st13" d="M1321.68,935.39l103.97-31.6l0.73,3.31l1.16,3.35l-98.93,31.75c0,0-13.69,1.89-20.06,18.11
	c-6.36,16.22-27.81,68.26-27.81,68.26l-43.06,75.09l60.07-141.02c0,0,5.7-23.04,24.5-27.42"/>
<path class="st13" d="M835.36,1330.27h92.91c1.54,0,2.79-1.22,2.79-2.73v-0.82c0-1.51-1.25-2.73-2.79-2.73h-92.91
	c-1.54,0-2.79,1.22-2.79,2.73v0.82C832.57,1329.05,833.82,1330.27,835.36,1330.27z"/>
<path class="st13" d="M942.07,1330.27h6.96c1.54,0,2.79-1.22,2.79-2.73v-0.82c0-1.51-1.25-2.73-2.79-2.73h-6.96
	c-1.54,0-2.79,1.22-2.79,2.73v0.82C939.28,1329.05,940.53,1330.27,942.07,1330.27z"/>
<path class="st48" d="M1910.83,714.89c0,0-34.03,9.69-57.57,53.89"/>
<path class="st48" d="M1847.71,780.98c-0.27,0.71-3.45,8.4-4.94,16.25"/>
</svg>
