<svg width="25" height="25" viewBox="0 0 25 25" fill="none" xmlns="http://www.w3.org/2000/svg">
<path opacity="0.33" d="M22.1437 25H3.92941C2.32227 25 1.07227 23.75 1.07227 22.1429V3.75003C1.07227 2.14288 2.32227 0.892883 3.92941 0.892883H22.1437C23.7508 0.892883 25.0008 2.14288 25.0008 3.75003V21.9643C25.0008 23.75 23.7508 25 22.1437 25Z" fill="black" fill-opacity="0.3"/>
<path d="M21.25 24.1071H2.85714C1.25 24.1071 0 22.8571 0 21.25V2.85714C0 1.25 1.25 0 2.85714 0H21.0714C22.6786 0 23.9286 1.25 23.9286 2.85714V21.0714C24.1071 22.8571 22.8571 24.1071 21.25 24.1071Z" fill="#F5B805"/>
<path d="M10.8926 4.64284V4.46427C10.8926 4.46427 10.714 3.92855 10.8926 3.39284C11.0711 2.85713 11.6069 2.49998 11.6069 2.49998C11.7854 2.49998 11.964 2.32141 12.1426 2.32141C12.1426 2.32141 12.3211 2.32141 12.4997 2.32141C12.6783 2.49998 12.8569 2.49998 12.8569 2.49998C13.0354 2.49998 13.214 2.67855 13.3926 3.0357C13.3926 3.0357 13.5711 3.39284 13.5711 3.57141C13.5711 3.57141 13.5711 3.74998 13.5711 3.92855C13.5711 4.10713 13.5711 4.2857 13.3926 4.2857C13.214 4.2857 13.214 4.2857 13.214 4.46427L13.0354 4.82141H13.214C13.214 4.82141 13.3926 4.82141 13.5711 4.82141C13.7497 4.64284 14.1069 4.64284 14.1069 4.64284C14.1069 4.64284 14.1069 4.64284 14.2854 4.64284C14.464 4.64284 14.464 4.64284 14.8211 4.82141C14.8211 4.82141 14.8211 4.82141 14.9997 4.82141C15.1783 4.82141 18.3926 4.82141 18.3926 4.82141C18.3926 4.82141 18.3926 4.82141 18.9283 4.99998C18.9283 4.99998 19.2854 5.17855 19.2854 5.35713H20.3569C20.3569 5.35713 20.8926 5.35713 21.0711 5.35713C21.2497 5.35713 21.0711 5.5357 21.0711 5.5357H19.464C19.464 5.5357 19.1069 5.5357 18.9283 5.5357C18.7497 5.5357 17.8569 5.71427 17.3211 5.71427C16.7854 5.71427 16.0711 6.24998 16.4283 7.32141C16.4283 7.32141 16.0711 7.32141 16.0711 7.85713C16.0711 8.39284 15.3569 8.74998 15.1783 8.92855C14.9997 8.92855 14.6426 8.92855 14.6426 8.92855L13.214 8.21427L13.0354 8.57141C13.0354 8.57141 13.0354 8.74998 13.214 8.92855C13.3926 8.92855 13.5711 8.92855 13.3926 9.10713C13.3926 9.2857 13.214 11.0714 13.214 11.0714C13.214 11.0714 13.214 11.4286 12.8569 11.25C12.8569 11.25 12.6783 11.25 12.6783 11.4286V11.9643C12.6783 11.9643 13.7497 13.3928 14.1069 14.4643C14.1069 14.4643 14.2854 14.8214 14.2854 15C14.464 15.1786 14.6426 15.7143 14.6426 16.4286C14.6426 17.1428 14.464 17.6786 14.464 18.0357C14.464 18.3928 14.464 18.75 14.2854 19.4643C14.1069 20.1786 14.8211 21.0714 15.3569 21.0714C15.3569 21.0714 15.714 21.25 15.714 21.6071H15.5354C15.5354 21.6071 13.3926 21.4286 13.214 21.4286C13.0354 21.4286 12.8569 21.25 13.0354 21.0714C13.0354 21.0714 13.3926 20 13.3926 19.8214C13.3926 19.4643 13.0354 18.0357 13.0354 17.8571C13.0354 17.6786 12.8569 16.9643 13.0354 16.6071C13.214 16.25 13.0354 15.8928 12.8569 15.8928C12.4997 15.7143 12.1426 15.5357 11.964 15.3571C11.7854 15 11.2497 14.2857 11.2497 14.2857C11.2497 14.2857 11.2497 14.1071 11.0711 14.1071C10.8926 14.1071 10.714 14.1071 10.5354 13.5714L9.82115 15.1786C9.82115 15.1786 9.82115 15.7143 9.64258 15.8928C9.46401 16.0714 8.57115 17.1428 8.57115 17.1428C8.57115 17.1428 8.74972 17.6786 8.21401 18.5714L7.85686 19.1071C7.85686 19.2857 7.67829 19.4643 7.49972 19.6428C7.32115 19.8214 6.96401 20.8928 7.32115 21.4286C7.32115 21.4286 7.49972 21.7857 7.14258 21.7857C6.78544 21.7857 6.24972 21.7857 6.24972 21.7857C6.24972 21.7857 5.89258 21.7857 5.89258 21.0714C5.89258 20.3571 6.24972 19.6428 6.24972 19.6428C6.24972 19.6428 6.24972 18.5714 6.42829 18.0357C6.78544 17.5 6.96401 16.9643 7.49972 16.0714C7.49972 16.0714 7.67829 15.8928 7.67829 15.1786C7.67829 14.6428 7.85686 13.5714 7.85686 13.5714V12.1428C7.85686 12.1428 7.85686 11.9643 8.03543 11.9643C8.21401 11.9643 8.21401 11.7857 8.21401 11.6071C8.21401 11.4286 7.85686 10.5357 7.85686 10.5357C7.85686 10.5357 7.85686 10.3571 8.03543 10.1786C8.03543 9.99998 8.21401 9.82141 8.39258 9.82141L8.03543 9.64284C8.03543 9.64284 7.85686 9.64284 7.85686 9.2857C7.85686 9.10713 8.03543 8.39284 8.03543 7.85713C8.03543 7.49998 8.39258 7.49998 8.39258 7.49998H8.74972C8.74972 7.49998 8.92829 7.49998 8.92829 7.32141C8.74972 7.14284 8.57115 6.07141 9.10686 5.35713C9.64258 4.64284 10.1783 4.2857 10.8926 4.64284Z" fill="white"/>
</svg>
