<svg width="25" height="25" viewBox="0 0 25 25" fill="none" xmlns="http://www.w3.org/2000/svg">
<path opacity="0.33" d="M22.1426 25H3.74972C2.14258 25 0.892578 23.75 0.892578 22.1428V3.92855C0.892578 2.32141 2.14258 1.07141 3.74972 1.07141H22.1426C23.7497 1.07141 24.9997 2.32141 24.9997 3.92855V22.1428C24.9997 23.75 23.7497 25 22.1426 25Z" fill="black" fill-opacity="0.3"/>
<path d="M21.25 23.9286H2.85714C1.25 23.9286 0 22.6786 0 21.0714V2.85714C0 1.25 1.25 0 2.85714 0H21.25C22.8571 0 24.1071 1.25 24.1071 2.85714V21.0714C24.1071 22.6786 22.8571 23.9286 21.25 23.9286Z" fill="#3D912E"/>
<path d="M3.03516 6.07141L3.92801 17.1428L12.678 21.7857L20.178 16.6071L21.0709 5.71427L11.6066 3.57141L3.03516 6.07141Z" fill="white"/>
<path d="M21.0706 5.71429L12.6777 9.10715V21.7857L20.1777 16.7857L21.0706 5.71429Z" fill="#E3E3E3"/>
</svg>
