<svg width="25" height="25" viewBox="0 0 25 25" fill="none" xmlns="http://www.w3.org/2000/svg">
<g opacity="0.33">
<path opacity="0.33" d="M22.1426 25H3.92829C2.32115 25 0.892578 23.75 0.892578 21.9643V3.9286C0.892578 2.32145 2.14258 0.892883 3.92829 0.892883H22.1426C23.7497 0.892883 25.1783 2.14288 25.1783 3.9286V22.1429C24.9997 23.75 23.7497 25 22.1426 25Z" fill="black"/>
<g opacity="0.33">
<g opacity="0.33">
<g opacity="0.33">
<path opacity="0.33" d="M15.8945 9.10718H12.1445V10.8929H15.8945V9.10718Z" fill="black"/>
<path opacity="0.33" d="M12.1437 8.39287H15.8937L17.1437 3.21429H11.0723L12.1437 8.39287Z" fill="black"/>
</g>
<g opacity="0.33">
<path opacity="0.33" d="M9.25 12.1613V15.9113H11.0357V12.1613H9.25Z" fill="black"/>
<path opacity="0.33" d="M8.39341 15.8928V12.1428L3.21484 11.0714V16.9643L8.39341 15.8928Z" fill="black"/>
</g>
<g opacity="0.33">
<path opacity="0.33" d="M15.0886 17.7853L17.7402 15.1337L16.4776 13.871L13.8259 16.5226L15.0886 17.7853Z" fill="black"/>
<path opacity="0.33" d="M18.3934 15.7143L15.7148 18.3929L18.572 22.8571L22.8577 18.5714L18.3934 15.7143Z" fill="black"/>
</g>
<path opacity="0.33" d="M13.5322 12.407L12.2695 13.6697L13.5322 14.9324L14.7949 13.6697L13.5322 12.407Z" fill="black"/>
</g>
</g>
</g>
<path d="M21.25 24.1071H2.85714C1.25 24.1071 0 22.8571 0 21.25V2.85714C0 1.25 1.25 0 2.85714 0H21.25C22.8571 0 24.1071 1.25 24.1071 2.85714V21.25C24.1071 22.8571 22.8571 24.1071 21.25 24.1071Z" fill="#CE412B"/>
<path d="M15.1797 8.21429H11.4297V10H15.1797V8.21429Z" fill="white"/>
<path d="M11.4297 7.49998H15.0011L16.2511 2.32141H10.1797L11.4297 7.49998Z" fill="white"/>
<path d="M8.35742 11.288V15.038H10.1431V11.288H8.35742Z" fill="white"/>
<path d="M7.50084 15V11.25L2.32227 10.1785V16.0714L7.50084 15Z" fill="white"/>
<path d="M14.2195 16.9022L16.8711 14.2506L15.6084 12.9879L12.9568 15.6396L14.2195 16.9022Z" fill="white"/>
<path d="M17.5008 14.8214L14.8223 17.5L17.6794 21.9643L21.9651 17.6786L17.5008 14.8214Z" fill="white"/>
<path d="M12.8877 11.5239L11.625 12.7866L12.8877 14.0492L14.1504 12.7866L12.8877 11.5239Z" fill="white"/>
</svg>
